<svg xmlns="http://www.w3.org/2000/svg" viewBox="0 0 1200 720" role="img" aria-label="Integrations">
  <defs>
    <linearGradient id="g" x1="0" x2="1" y1="0" y2="1">
      <stop offset="0" stop-color="#1F4DA0" stop-opacity="0.18"/>
      <stop offset="1" stop-color="#1F4DA0" stop-opacity="0.06"/>
    </linearGradient>
  </defs>
  <rect x="0" y="0" width="1200" height="720" rx="28" fill="url(#g)"/>
  <rect x="70" y="80" width="1060" height="560" rx="22" fill="#ffffff" opacity="0.95"/>
  <rect x="70" y="80" width="1060" height="64" rx="22" fill="#F3F6FB"/>
  <circle cx="110" cy="112" r="10" fill="#1F4DA0" opacity="0.55"/>
  <circle cx="145" cy="112" r="10" fill="#1F4DA0" opacity="0.35"/>
  <circle cx="180" cy="112" r="10" fill="#1F4DA0" opacity="0.20"/>
  <rect x="250" y="102" width="380" height="20" rx="10" fill="#1F4DA0" opacity="0.18"/>
  <rect x="110" y="190" width="420" height="26" rx="10" fill="#1F4DA0" opacity="0.22"/>
  <rect x="110" y="236" width="520" height="16" rx="8" fill="#1F4DA0" opacity="0.12"/>
  <rect x="110" y="270" width="470" height="16" rx="8" fill="#1F4DA0" opacity="0.12"/>
  <rect x="110" y="304" width="500" height="16" rx="8" fill="#1F4DA0" opacity="0.12"/>
  <rect x="110" y="360" width="320" height="190" rx="18" fill="#F9FBFD" stroke="#E5EAF1"/>
  <rect x="470" y="360" width="660" height="190" rx="18" fill="#F9FBFD" stroke="#E5EAF1"/>
  <rect x="140" y="400" width="260" height="16" rx="8" fill="#1F4DA0" opacity="0.14"/>
  <rect x="140" y="430" width="220" height="14" rx="7" fill="#1F4DA0" opacity="0.10"/>
  <rect x="140" y="470" width="200" height="14" rx="7" fill="#1F4DA0" opacity="0.10"/>
  <rect x="500" y="400" width="420" height="16" rx="8" fill="#1F4DA0" opacity="0.14"/>
  <rect x="500" y="430" width="360" height="14" rx="7" fill="#1F4DA0" opacity="0.10"/>
  <rect x="500" y="470" width="390" height="14" rx="7" fill="#1F4DA0" opacity="0.10"/>
  <text x="110" y="610" font-family="system-ui, -apple-system, Segoe UI, Roboto, Arial" font-size="40" font-weight="700" fill="#1F4DA0" opacity="0.75">Integrations</text>
</svg>
